<?xml version="1.0" encoding="utf-8"?>
<!-- Generator: Adobe Illustrator 19.1.0, SVG Export Plug-In . SVG Version: 6.00 Build 0)  -->
<svg version="1.1" id="レイヤー_1" xmlns="http://www.w3.org/2000/svg" xmlns:xlink="http://www.w3.org/1999/xlink" x="0px"
	 y="0px" viewBox="0 0 100 100" style="enable-background:new 0 0 100 100;" xml:space="preserve">
<style type="text/css">
	.st0{fill:#FFFFFF;}
</style>
<g>
	<path class="st0" d="M99.9,47.6c-1-11.6-5.6-22.2-14.1-31.9C77.3,5.9,65.1,1.1,49.3,1v0.1C33.3,1.6,21.1,6.8,12.8,16.8
		C4.5,26.9,0.1,37.7,0,49.6c0,0.1,0,0.1,0,0.3c0,0.1,0,0.4,0,0.6c0,12,4.2,22.9,12.6,32.8c8.3,9.9,20.8,14.8,37.6,14.8
		c16.8,0,29.3-4.9,37.5-14.8c8.2-9.9,12.2-21,12.2-33.6c0-0.4,0-0.7,0-1.1C99.9,48.2,99.9,47.9,99.9,47.6z M26,41.1
		c0-4.3,2.8-7.7,6.2-7.7c3.4,0,6.2,3.5,6.2,7.7c0,4.3-2.8,7.7-6.2,7.7C28.8,48.8,26,45.3,26,41.1z M65.8,75.1
		c-3.3,4.2-8,6.4-14.1,6.4c-6,0-10.7-2-14.3-6c-3.5-3.9-5.3-9.5-5.3-17.1h38.5C70.5,65.5,68.9,71.1,65.8,75.1z M70.7,48.8
		c-3.4,0-6.2-3.5-6.2-7.7c0-4.3,2.8-7.7,6.2-7.7c3.4,0,6.2,3.5,6.2,7.7C76.8,45.3,74.1,48.8,70.7,48.8z"/>
</g>
</svg>
