<?xml version="1.0" encoding="utf-8"?>
<!-- Generator: Adobe Illustrator 19.1.0, SVG Export Plug-In . SVG Version: 6.00 Build 0)  -->
<svg version="1.1" id="レイヤー_1" xmlns="http://www.w3.org/2000/svg" xmlns:xlink="http://www.w3.org/1999/xlink" x="0px"
	 y="0px" viewBox="-297 388 17 17" style="enable-background:new -297 388 17 17;" xml:space="preserve">
<style type="text/css">
	.st0{fill:#FFFFFF;}
</style>
<path class="st0" d="M-284.9,394.1l0.7,0.7l-4.4,4.4l-4.4-4.4l0.7-0.7l3.6,3.6C-288.5,397.8-284.9,394.1-284.9,394.1z M-280,396.5
	c0,4.7-3.8,8.5-8.5,8.5s-8.5-3.8-8.5-8.5s3.8-8.5,8.5-8.5S-280,391.8-280,396.5z M-281,396.5c0-4.1-3.4-7.5-7.5-7.5
	s-7.5,3.4-7.5,7.5s3.4,7.5,7.5,7.5S-281,400.6-281,396.5z"/>
</svg>
