<?xml version="1.0" encoding="utf-8"?>
<!-- Generator: Adobe Illustrator 19.1.0, SVG Export Plug-In . SVG Version: 6.00 Build 0)  -->
<svg version="1.1" id="レイヤー_1" xmlns="http://www.w3.org/2000/svg" xmlns:xlink="http://www.w3.org/1999/xlink" x="0px"
	 y="0px" viewBox="190 132.2 992.3 528.8" style="enable-background:new 190 132.2 992.3 528.8;" xml:space="preserve">
<style type="text/css">
	.st0{fill:#FFFFFF;stroke:#FFFFFF;stroke-width:40;stroke-miterlimit:10;}
	.st1{fill:#FF9900;stroke:#FFFFFF;stroke-miterlimit:10;}
	.st2{fill:none;stroke:#FFFFFF;stroke-width:14.1732;stroke-miterlimit:10;}
	.st3{fill:#007700;stroke:#FFFFFF;stroke-miterlimit:10;}
	.st4{fill:#231815;stroke:#FFFFFF;stroke-miterlimit:10;}
	.st5{fill:none;stroke:#FFFFFF;stroke-width:11.3386;stroke-miterlimit:10;}
	.st6{fill:#F7F7F7;stroke:#FFFFFF;stroke-miterlimit:10;}
</style>
<g>
	<path class="st0" d="M568.5,406c0-1.5,1.1-2.6,2.6-2.6h97.1c1.4,0,2.6,1.1,2.6,2.6v117.9c0,1.4-1.2,2.6-2.6,2.6h-41
		c-1.4,0-2.8-1.1-3.2-2.5l-3.6-14.3c-0.3-1.4-1.4-1.6-2.3-0.6c0,0-0.7,0.9-2.1,2.2c-1.4,1.4-2.7,2.7-4.4,4.1
		c-4.4,3.8-11,7.6-19.6,10.7c-8.6,3.4-21.4,5.1-37.5,5.1c-36.1,0-63.6-12-82.6-35.7c-19-23.7-28.5-50.1-28.5-79c0-1,0-1.7,0-2.7
		c0-0.7,0-1.4,0-2.1c1-27.8,11.4-53.3,30.7-76.3c19-23.1,47.5-34.7,85-35c28.5,0,50.9,5.5,67.8,16.8c16.5,11.4,28.2,23.7,34.8,37.1
		c2.4,5.1,4.1,10,5.1,14.4c1,4.8,1.7,9.3,1.7,13.8l-67.7-0.3c-1.4,0-3.1-1-3.7-2.3c0,0-7.1-14.5-13-18.6c-5.9-3.8-14.4-5.8-25.1-5.8
		c-12,0-21.7,6.2-28.9,18.2c-7.3,12-11,25.5-11.7,39.9c0,1,0,1.7,0,2.4c0,1,0,1.7,0,2.4c0,14.8,3.4,28.2,10.7,40.2
		c6.9,12,17.5,18.2,32.4,18.2c9.7,0,18.3-2.1,25.5-5.8c7.3-3.8,12.4-9.7,16.1-18.2l-31.9-0.3c-1.4,0-2.6-1.2-2.6-2.6L568.5,406
		L568.5,406z"/>
	<path class="st0" d="M568.5,406c0-1.5,1.1-2.6,2.6-2.6h97.1c1.4,0,2.6,1.1,2.6,2.6v117.9c0,1.4-1.2,2.6-2.6,2.6h-41
		c-1.4,0-2.8-1.1-3.2-2.5l-3.6-14.3c-0.3-1.4-1.4-1.6-2.3-0.6c0,0-0.7,0.9-2.1,2.2c-1.4,1.4-2.7,2.7-4.4,4.1
		c-4.4,3.8-11,7.6-19.6,10.7c-8.6,3.4-21.4,5.1-37.5,5.1c-36.1,0-63.6-12-82.6-35.7c-19-23.7-28.5-50.1-28.5-79c0-1,0-1.7,0-2.7
		c0-0.7,0-1.4,0-2.1c1-27.8,11.4-53.3,30.7-76.3c19-23.1,47.5-34.7,85-35c28.5,0,50.9,5.5,67.8,16.8c16.5,11.4,28.2,23.7,34.8,37.1
		c2.4,5.1,4.1,10,5.1,14.4c1,4.8,1.7,9.3,1.7,13.8l-67.7-0.3c-1.4,0-3.1-1-3.7-2.3c0,0-7.1-14.5-13-18.6c-5.9-3.8-14.4-5.8-25.1-5.8
		c-12,0-21.7,6.2-28.9,18.2c-7.3,12-11,25.5-11.7,39.9c0,1,0,1.7,0,2.4c0,1,0,1.7,0,2.4c0,14.8,3.4,28.2,10.7,40.2
		c6.9,12,17.5,18.2,32.4,18.2c9.7,0,18.3-2.1,25.5-5.8c7.3-3.8,12.4-9.7,16.1-18.2l-31.9-0.3c-1.4,0-2.6-1.2-2.6-2.6L568.5,406
		L568.5,406z"/>
</g>
<g>
	<g>
		<path class="st0" d="M568.5,406c0-1.4,1.1-2.6,2.6-2.6h97.1c1.4,0,2.6,1.2,2.6,2.6v117.9c0,1.4-1.2,2.6-2.6,2.6h-41
			c-1.4,0-2.8-1.1-3.2-2.5l-3.6-14.3c-0.3-1.4-1.4-1.6-2.3-0.6c0,0-0.7,0.9-2.1,2.2c-1.4,1.4-2.7,2.7-4.4,4.1
			c-4.4,3.8-11,7.6-19.6,10.7c-8.6,3.4-21.4,5.1-37.5,5.1c-36.1,0-63.6-12-82.6-35.7c-19-23.7-28.5-50.1-28.5-79c0-1,0-1.7,0-2.7
			c0-0.7,0-1.4,0-2.1c1-27.8,11.4-53.3,30.7-76.3c19-23.1,47.5-34.7,85-35c28.5,0,50.9,5.5,67.8,16.8c16.5,11.4,28.2,23.7,34.8,37.1
			c2.4,5.1,4.1,10,5.1,14.4c1,4.8,1.7,9.3,1.7,13.8l-67.7-0.3c-1.4,0-3.1-1-3.7-2.3c0,0-7.1-14.5-13-18.6
			c-5.9-3.8-14.4-5.8-25.1-5.8c-12,0-21.7,6.2-28.9,18.2c-7.3,12-11,25.5-11.7,39.9c0,1,0,1.7,0,2.4c0,1,0,1.7,0,2.4
			c0,14.8,3.4,28.2,10.7,40.2c6.9,12,17.5,18.2,32.4,18.2c9.7,0,18.3-2.1,25.5-5.8c7.3-3.8,12.4-9.7,16.1-18.2l-31.9-0.3
			c-1.4,0-2.6-1.2-2.6-2.6L568.5,406L568.5,406z"/>
	</g>
	<g>
		<path class="st0" d="M568.5,406c0-1.4,1.1-2.6,2.6-2.6h97.1c1.4,0,2.6,1.2,2.6,2.6v117.9c0,1.4-1.2,2.6-2.6,2.6h-41
			c-1.4,0-2.8-1.1-3.2-2.5l-3.6-14.3c-0.3-1.4-1.4-1.6-2.3-0.6c0,0-0.7,0.9-2.1,2.2c-1.4,1.4-2.7,2.7-4.4,4.1
			c-4.4,3.8-11,7.6-19.6,10.7c-8.6,3.4-21.4,5.1-37.5,5.1c-36.1,0-63.6-12-82.6-35.7c-19-23.7-28.5-50.1-28.5-79c0-1,0-1.7,0-2.7
			c0-0.7,0-1.4,0-2.1c1-27.8,11.4-53.3,30.7-76.3c19-23.1,47.5-34.7,85-35c28.5,0,50.9,5.5,67.8,16.8c16.5,11.4,28.2,23.7,34.8,37.1
			c2.4,5.1,4.1,10,5.1,14.4c1,4.8,1.7,9.3,1.7,13.8l-67.7-0.3c-1.4,0-3.1-1-3.7-2.3c0,0-7.1-14.5-13-18.6
			c-5.9-3.8-14.4-5.8-25.1-5.8c-12,0-21.7,6.2-28.9,18.2c-7.3,12-11,25.5-11.7,39.9c0,1,0,1.7,0,2.4c0,1,0,1.7,0,2.4
			c0,14.8,3.4,28.2,10.7,40.2c6.9,12,17.5,18.2,32.4,18.2c9.7,0,18.3-2.1,25.5-5.8c7.3-3.8,12.4-9.7,16.1-18.2l-31.9-0.3
			c-1.4,0-2.6-1.2-2.6-2.6L568.5,406L568.5,406z"/>
	</g>
</g>
<g>
	<path class="st0" d="M811.7,304.9c1.5,0,3,1.1,3.4,2.4l78.2,216.8c0.5,1.4-0.3,2.4-1.7,2.4h-70c-1.5,0-2.8-1.1-3.2-2.5l-6-23.9
		c-0.3-1.4-1.8-2.5-3.2-2.5h-67.5c-1.4,0-2.9,1.1-3.2,2.5L732,524c-0.3,1.4-1.8,2.5-3.2,2.5h-69.2c-1.4,0-2.1-1.1-1.7-2.4
		l78.1-216.8c0.5-1.4,2.1-2.4,3.4-2.4L811.7,304.9L811.7,304.9z M794.1,452.3c1.4,0,2.2-1.1,1.9-2.5l-19.9-67.6
		c-0.4-1.4-1-1.4-1.5,0l-20.2,67.6c-0.4,1.4,0.4,2.5,1.8,2.5H794.1z"/>
	<path class="st0" d="M811.7,304.9c1.5,0,3,1.1,3.4,2.4l78.2,216.8c0.5,1.4-0.3,2.4-1.7,2.4h-70c-1.5,0-2.8-1.1-3.2-2.5l-6-23.9
		c-0.3-1.4-1.8-2.5-3.2-2.5h-67.5c-1.4,0-2.9,1.1-3.2,2.5L732,524c-0.3,1.4-1.8,2.5-3.2,2.5h-69.2c-1.4,0-2.1-1.1-1.7-2.4
		l78.1-216.8c0.5-1.4,2.1-2.4,3.4-2.4L811.7,304.9L811.7,304.9z M794.1,452.3c1.4,0,2.2-1.1,1.9-2.5l-19.9-67.6
		c-0.4-1.4-1-1.4-1.5,0l-20.2,67.6c-0.4,1.4,0.4,2.5,1.8,2.5H794.1z"/>
</g>
<g>
	<g>
		<path class="st0" d="M811.7,305c1.5,0,3,1.1,3.4,2.4l78.2,216.8c0.5,1.4-0.3,2.4-1.7,2.4h-70c-1.5,0-2.8-1.1-3.2-2.5l-6-23.9
			c-0.3-1.4-1.8-2.5-3.2-2.5h-67.5c-1.4,0-2.9,1.1-3.2,2.5l-6.6,23.9c-0.3,1.4-1.8,2.5-3.2,2.5h-69.2c-1.4,0-2.1-1.1-1.7-2.4
			l78.1-216.8c0.5-1.4,2.1-2.4,3.4-2.4H811.7L811.7,305z M794.1,452.4c1.4,0,2.2-1.1,1.9-2.5l-19.9-67.6c-0.4-1.4-1-1.4-1.5,0
			l-20.2,67.6c-0.4,1.4,0.4,2.5,1.8,2.5H794.1z"/>
	</g>
	<g>
		<path class="st0" d="M811.7,305c1.5,0,3,1.1,3.4,2.4l78.2,216.8c0.5,1.4-0.3,2.4-1.7,2.4h-70c-1.5,0-2.8-1.1-3.2-2.5l-6-23.9
			c-0.3-1.4-1.8-2.5-3.2-2.5h-67.5c-1.4,0-2.9,1.1-3.2,2.5l-6.6,23.9c-0.3,1.4-1.8,2.5-3.2,2.5h-69.2c-1.4,0-2.1-1.1-1.7-2.4
			l78.1-216.8c0.5-1.4,2.1-2.4,3.4-2.4H811.7L811.7,305z M794.1,452.4c1.4,0,2.2-1.1,1.9-2.5l-19.9-67.6c-0.4-1.4-1-1.4-1.5,0
			l-20.2,67.6c-0.4,1.4,0.4,2.5,1.8,2.5H794.1z"/>
	</g>
</g>
<path class="st0" d="M933.8,434.8c0.2,18.9,4.4,32.9,13.2,42.6c9,9.9,20.8,15,35.6,15c15.3,0,27-5.4,35.2-16
	c7.8-9.9,11.6-23.8,12-41.7H933.8z"/>
<path class="st0" d="M949.2,391.7c0,10.6-6.9,19.2-15.4,19.2c-8.5,0-15.4-8.6-15.4-19.2c0-10.6,6.9-19.2,15.4-19.2
	C942.4,372.6,949.2,381.2,949.2,391.7z"/>
<path class="st0" d="M1045.4,391.7c0,10.6-6.9,19.2-15.4,19.2c-8.5,0-15.4-8.6-15.4-19.2c0-10.6,6.9-19.2,15.4-19.2
	C1038.6,372.6,1045.4,381.2,1045.4,391.7z"/>
<circle class="st0" cx="978.9" cy="411.5" r="127.6"/>
<ellipse class="st0" cx="364.1" cy="444.9" rx="98.4" ry="88.6"/>
<g id="レイヤー_1_1_">
	<g>
		<path class="st1" d="M449.7,475.3c-2.4,14.4-10.3,27.2-24.4,38.2c-14.1,11.4-35.8,16.8-65.1,16.8h-0.5c-1.5,0-3.7,0-5.1,0
			c0,0-40.4,0-64.6-26.5c-15.7-17.3-23.1-36.7-23.4-57.7c0-0.3,0-0.3,0-0.7c0,0,0,0,0-0.3s0-0.7,0-1c0-0.3,0-0.7,0-1
			c0.3-20.9,8.3-40.2,23.7-57.7c15.1-17.5,37.5-26.1,67.5-26.1c26.5,0,46.8,5.5,60.2,16.5c13.4,11,23.1,23.1,28.5,36
			c3.1,7.6,5.1,14.8,6.2,21.6c1,7.3,1.7,13.1,1.7,18.2v4.4c0,1.4-1.1,2.6-2.6,2.6H335.6c-1.5,0-2.3,1.1-2.1,2.5
			c0,0,2.9,14.4,8.1,19.5c5.1,5.1,10.7,8.3,16.8,9.3c1,0.3,2.1,0.3,3.1,0.3c1,0.3,1.7,0.3,2.7,0.3c5.1,0,10-1.4,14.4-4.1
			c4.4-2.7,6.9-6.2,7.9-10.7l0,0c0-0.2,1.2-0.3,2.6-0.3L449.7,475.3L449.7,475.3z M391.6,424.1c-2.4-9.3-6.2-15.8-11.7-18.9
			c-5.9-3.1-12.4-4.4-19.6-4.4s-13.1,1.4-17.9,4.4c-5.1,3.1-9,8.7-11.7,18.2v1c0-0.2,1.1-0.3,2.6-0.3H391.6z"/>
	</g>
	<g>
		<path class="st2" d="M568.5,405c0-1.4,1.2-2.6,2.6-2.6h97.1c1.5,0,2.6,1.2,2.6,2.6v117.9c0,1.5-1.1,2.6-2.6,2.6h-41
			c-1.4,0-2.8-1.1-3.2-2.5l-3.6-14.3c-0.3-1.4-1.4-1.6-2.3-0.6c0,0-0.7,0.9-2.1,2.2c-1.4,1.4-2.7,2.7-4.4,4.1
			c-4.4,3.8-11,7.6-19.6,10.7c-8.6,3.4-21.4,5.1-37.5,5.1c-36.1,0-63.6-12-82.6-35.7c-19-23.7-28.6-50.1-28.6-79c0-1,0-1.7,0-2.7
			c0-0.7,0-1.4,0-2.1c1-27.8,11.4-53.3,30.7-76.3c19-23.1,47.5-34.7,85-35c28.5,0,50.9,5.5,67.8,16.8c16.5,11.4,28.2,23.7,34.8,37.1
			c2.4,5.1,4.1,10,5.1,14.4c1,4.8,1.7,9.3,1.7,13.8l-67.7-0.3c-1.4,0-3.1-1-3.7-2.3c0,0-7.1-14.5-13-18.6
			c-5.9-3.8-14.4-5.8-25.1-5.8c-12,0-21.7,6.2-28.9,18.2c-7.3,12-11,25.5-11.7,39.9c0,1,0,1.7,0,2.4c0,1,0,1.7,0,2.4
			c0,14.8,3.4,28.2,10.7,40.2c6.9,12,17.5,18.2,32.4,18.2c9.7,0,18.3-2.1,25.5-5.8c7.3-3.8,12.4-9.7,16.1-18.2l-31.9-0.3
			c-1.4,0-2.6-1.2-2.6-2.6V405z"/>
	</g>
	<g>
		<g>
			<path class="st3" d="M568.5,405c0-1.4,1.2-2.6,2.6-2.6h97.1c1.5,0,2.6,1.2,2.6,2.6v117.9c0,1.4-1.1,2.6-2.6,2.6h-41
				c-1.4,0-2.8-1.1-3.2-2.5l-3.6-14.3c-0.3-1.4-1.4-1.6-2.3-0.6c0,0-0.7,0.9-2.1,2.2c-1.4,1.4-2.7,2.7-4.4,4.1
				c-4.4,3.8-11,7.6-19.6,10.7c-8.6,3.4-21.4,5.1-37.5,5.1c-36.1,0-63.6-12-82.6-35.7c-19-23.7-28.6-50.1-28.6-79c0-1,0-1.7,0-2.7
				c0-0.7,0-1.4,0-2.1c1-27.8,11.4-53.3,30.7-76.3c19-23.1,47.5-34.7,85-35c28.5,0,50.9,5.5,67.8,16.8
				c16.5,11.4,28.2,23.7,34.8,37.1c2.4,5.1,4.1,10,5.1,14.4c1,4.8,1.7,9.3,1.7,13.8l-67.7-0.3c-1.4,0-3.1-1-3.7-2.3
				c0,0-7.1-14.5-13-18.6c-5.9-3.8-14.4-5.8-25.1-5.8c-12,0-21.7,6.2-28.9,18.2c-7.3,12-11,25.5-11.7,39.9c0,1,0,1.7,0,2.4
				c0,1,0,1.7,0,2.4c0,14.8,3.4,28.2,10.7,40.2c6.9,12,17.5,18.2,32.4,18.2c9.7,0,18.3-2.1,25.5-5.8c7.3-3.8,12.4-9.7,16.1-18.2
				l-31.9-0.3c-1.4,0-2.6-1.2-2.6-2.6V405z"/>
		</g>
	</g>
	<g>
		<path class="st4" d="M811.7,303.8c1.4,0,3,1.1,3.4,2.4L893.3,523c0.5,1.4-0.3,2.4-1.7,2.4h-70c-1.4,0-2.8-1.1-3.2-2.5l-6-23.9
			c-0.3-1.4-1.8-2.5-3.2-2.5h-67.5c-1.5,0-2.9,1.1-3.2,2.5l-6.6,23.9c-0.3,1.4-1.8,2.5-3.2,2.5h-69.2c-1.4,0-2.1-1.1-1.7-2.4
			l78.1-216.8c0.5-1.4,2.1-2.4,3.4-2.4H811.7z M794.1,451.3c1.4,0,2.2-1.1,1.9-2.5l-19.9-67.6c-0.4-1.4-1-1.4-1.5,0l-20.2,67.7
			c-0.4,1.4,0.4,2.5,1.8,2.5L794.1,451.3L794.1,451.3z"/>
		<path class="st2" d="M811.7,303.8c1.4,0,3,1.1,3.4,2.4L893.3,523c0.5,1.4-0.3,2.4-1.7,2.4h-70c-1.4,0-2.8-1.1-3.2-2.5l-6-23.9
			c-0.3-1.4-1.8-2.5-3.2-2.5h-67.5c-1.5,0-2.9,1.1-3.2,2.5l-6.6,23.9c-0.3,1.4-1.8,2.5-3.2,2.5h-69.2c-1.4,0-2.1-1.1-1.7-2.4
			l78.1-216.8c0.5-1.4,2.1-2.4,3.4-2.4H811.7z M794.1,451.3c1.4,0,2.2-1.1,1.9-2.5l-19.9-67.6c-0.4-1.4-1-1.4-1.5,0l-20.2,67.7
			c-0.4,1.4,0.4,2.5,1.8,2.5L794.1,451.3L794.1,451.3z"/>
	</g>
	<g>
		<g>
			<path class="st3" d="M811.7,304c1.4,0,3,1.1,3.4,2.4l78.2,216.8c0.5,1.4-0.3,2.4-1.7,2.4h-70c-1.4,0-2.8-1.1-3.2-2.5l-6-23.9
				c-0.3-1.4-1.8-2.5-3.2-2.5h-67.5c-1.5,0-2.9,1.1-3.2,2.5l-6.6,23.9c-0.3,1.4-1.8,2.5-3.2,2.5h-69.2c-1.4,0-2.1-1.1-1.7-2.4
				l78.1-216.8c0.5-1.4,2.1-2.4,3.4-2.4H811.7L811.7,304z M794.1,451.5c1.4,0,2.2-1.1,1.9-2.5l-19.9-67.6c-0.4-1.4-1-1.4-1.5,0
				L754.4,449c-0.4,1.4,0.4,2.5,1.8,2.5H794.1z"/>
		</g>
	</g>
	<path class="st5" d="M1104.5,405.9c-2.6-30.2-14.2-57.7-35.6-83.2c-21.4-25.4-52.3-37.9-92.3-38.3v0.3
		c-40.3,1.1-71.2,14.7-92.3,40.8c-21.1,26.1-31.9,54.5-32.4,85.4c0,0.3,0,0.3,0,0.8c0,0.3,0,1.1,0,1.5c0,31.3,10.5,59.6,31.9,85.4
		c21.1,25.8,52.7,38.6,95.2,38.6c42.5,0,74.1-12.9,94.8-38.6c20.7-25.8,30.8-54.8,30.8-87.6c0-1.1,0-1.9,0-2.9
		C1104.5,407.4,1104.5,406.7,1104.5,405.9z"/>
	<path class="st3" d="M1102.9,407.1c-2.5-28.9-14-55.3-35.2-79.5c-21.2-24.3-51.7-36.2-91.1-36.6v0.3c-39.8,1-70.3,14.1-91.1,39
		s-31.6,52.1-31.9,81.7c0,0.3,0,0.3,0,0.7s0,1,0,1.4c0,29.9,10.4,57,31.6,81.6c20.8,24.6,52,36.9,94,36.9
		c41.9,0,73.2-12.3,93.6-36.9c20.4-24.6,30.5-52.4,30.5-83.7c0-1,0-1.8,0-2.8C1102.9,408.5,1102.9,407.8,1102.9,407.1z"/>
	<path class="st6" d="M933.9,433.8c0.2,18.9,4.4,32.9,13.2,42.6c9,9.9,20.8,15,35.6,15c15.3,0,27-5.4,35.2-16
		c7.8-9.9,11.6-23.8,12-41.7H933.9z"/>
	<path class="st6" d="M949.3,390.8c0,10.6-6.9,19.2-15.4,19.2c-8.5,0-15.4-8.6-15.4-19.2c0-10.6,6.9-19.2,15.4-19.2
		C942.4,371.6,949.3,380.2,949.3,390.8z"/>
	<path class="st6" d="M1045.4,390.8c0,10.6-6.9,19.2-15.4,19.2c-8.5,0-15.4-8.6-15.4-19.2c0-10.6,6.9-19.2,15.4-19.2
		C1038.6,371.6,1045.4,380.2,1045.4,390.8z"/>
</g>
</svg>
