<?xml version="1.0" encoding="utf-8"?>
<!-- Generator: Adobe Illustrator 15.0.2, SVG Export Plug-In . SVG Version: 6.00 Build 0)  -->
<!DOCTYPE svg PUBLIC "-//W3C//DTD SVG 1.1//EN" "http://www.w3.org/Graphics/SVG/1.1/DTD/svg11.dtd">
<svg version="1.1" xmlns="http://www.w3.org/2000/svg" xmlns:xlink="http://www.w3.org/1999/xlink" x="0px" y="0px"
	 width="433.701px" height="141.732px" viewBox="0 0 433.701 141.732" enable-background="new 0 0 433.701 141.732"
	 xml:space="preserve">
<g id="レイヤー_3" display="none">
	<rect x="-18.983" y="-26.301" display="inline" stroke="#FFFFFF" stroke-miterlimit="10" width="481" height="195"/>
</g>
<g id="レイヤー_2">
	<path fill="none" d="M71.727,78.012c-1.193-4.645-3.085-7.889-5.823-9.435c-2.935-1.551-6.17-2.2-9.752-2.2
		c-3.583,0-6.519,0.699-8.906,2.2c-2.539,1.546-4.479,4.345-5.822,9.086v0.496c0-0.097,0.547-0.146,1.293-0.146L71.727,78.012
		L71.727,78.012z"/>
	<path fill="none" d="M42.815,96.503c0,0,1.445,7.196,4.032,9.746c2.537,2.548,5.324,4.149,8.357,4.646
		c0.5,0.152,1.046,0.152,1.543,0.152c0.498,0.146,0.848,0.146,1.344,0.146c2.539,0,4.977-0.7,7.167-2.049
		c2.188-1.348,3.435-3.096,3.931-5.347c0-0.102,0.597-0.151,1.293-0.151l28.319-0.045c-1.358-2.729-2.518-5.514-3.481-8.352H43.861
		C43.115,95.251,42.718,95.804,42.815,96.503z"/>
	<path fill="none" d="M42.815,96.503c0,0,1.445,7.196,4.032,9.746c2.537,2.548,5.324,4.149,8.357,4.646
		c0.5,0.152,1.046,0.152,1.543,0.152c0.498,0.146,0.848,0.146,1.344,0.146c2.539,0,4.977-0.7,7.167-2.049
		c2.188-1.348,3.435-3.096,3.931-5.347c0-0.102,0.597-0.151,1.293-0.151l21.951-0.035c-1.222-2.738-2.273-5.524-3.14-8.361H43.861
		C43.115,95.251,42.718,95.804,42.815,96.503z"/>
	<path fill="none" d="M71.727,78.012c-1.193-4.645-3.085-7.889-5.823-9.435c-2.935-1.551-6.17-2.2-9.752-2.2
		c-3.583,0-6.519,0.699-8.906,2.2c-2.539,1.546-4.479,4.345-5.822,9.086v0.496c0-0.097,0.547-0.146,1.293-0.146L71.727,78.012
		L71.727,78.012z"/>
	<path fill="#FF9900" d="M68.78,103.647c-0.696,0-1.293,0.05-1.293,0.151c-0.496,2.251-1.743,3.999-3.931,5.347
		c-2.19,1.349-4.628,2.049-7.167,2.049c-0.496,0-0.846,0-1.344-0.146c-0.497,0-1.043,0-1.543-0.152
		c-3.033-0.497-5.82-2.099-8.357-4.646c-2.587-2.55-4.032-9.746-4.032-9.746c-0.098-0.698,0.3-1.252,1.046-1.252h45.433
		c-2.1-6.873-3.163-14.029-3.163-21.461c0-0.598,0-1.02,0-1.619c0-0.418,0-0.837,0-1.257c0.173-4.844,0.834-9.568,1.948-14.176
		c-1.022-0.967-2.081-1.924-3.215-2.859c-6.669-5.499-16.77-8.246-29.957-8.246c-14.929,0-26.074,4.299-33.588,13.046
		C11.952,67.426,7.972,77.061,7.822,87.508c0,0.146,0,0.35,0,0.497c0,0.151,0,0.351,0,0.502c0,0.146,0,0.146,0,0.146
		c0,0.204,0,0.204,0,0.351c0.15,10.5,3.833,20.195,11.645,28.842c12.042,13.248,32.146,13.248,32.146,13.248
		c0.698,0,1.793,0,2.539,0h0.25c14.579,0,25.378-2.701,32.393-8.397c3.856-3.021,6.776-6.314,8.825-9.862
		c-1.865-3.007-3.487-6.083-4.888-9.221L68.78,103.647z M39.721,78.16v-0.496c1.344-4.741,3.283-7.54,5.822-9.086
		c2.388-1.501,5.323-2.2,8.906-2.2c3.582,0,6.817,0.649,9.752,2.2c2.738,1.546,4.63,4.79,5.823,9.435v0.001H41.014
		C40.268,78.013,39.721,78.063,39.721,78.16z"/>
	<path fill="#FFFFFF" d="M208.39,68.51c0-0.699-0.548-1.299-1.295-1.299h-48.317c-0.695,0-1.293,0.6-1.293,1.299h0.001v21.93
		c0,0.699,0.597,1.299,1.293,1.299l15.875,0.152c-1.843,4.246-4.382,7.197-8.012,9.096c-3.583,1.85-7.864,2.9-12.69,2.9
		c-7.414,0-12.688-3.104-16.122-9.1c-3.633-6-5.325-12.693-5.325-20.086c0-0.348,0-0.699,0-1.199c0-0.348,0-0.697,0-1.197
		c0.348-7.193,2.19-13.939,5.822-19.939c3.583-5.996,8.409-9.098,14.383-9.098c5.323,0,9.553,1.004,12.488,2.898
		c2.938,2.053,6.47,9.299,6.47,9.299c0.298,0.648,1.144,1.15,1.84,1.15l33.689,0.146c0-2.25-0.349-4.494-0.848-6.896
		c-0.497-2.199-1.343-4.648-2.537-7.197c-3.284-6.699-9.107-12.846-17.317-18.543c-8.408-5.648-19.556-8.396-33.739-8.396
		c-18.659,0.15-32.841,5.949-42.297,17.494c-9.604,11.494-14.779,24.24-15.275,38.137c0,0.349,0,0.698,0,1.045c0,0.5,0,0.852,0,1.35
		c0,14.438,4.775,27.633,14.231,39.479c9.456,11.844,23.14,17.844,41.102,17.844c8.015,0,14.384-0.852,18.661-2.549
		c4.279-1.553,7.564-3.451,9.753-5.348c0.847-0.699,1.493-1.354,2.191-2.053c0.696-0.648,1.044-1.1,1.044-1.1
		c0.449-0.498,0.996-0.4,1.145,0.299l1.79,7.15c0.199,0.699,0.898,1.246,1.595,1.246h6.963l14.732-41.092V68.51z"/>
	<path fill="#FFFFFF" d="M309.48,121.742c-12.659-14.754-18.875-31.011-18.875-48.931c0-0.238,0-0.597,0-0.838
		c0-0.238,0-0.238,0-0.418c0.08-7.903,1.411-15.52,3.951-22.858l-10.688-29.757c-0.198-0.648-0.995-1.195-1.691-1.195h-36.029
		c-0.646,0-1.441,0.496-1.691,1.195l-38.845,108.354c-0.199,0.648,0.149,1.197,0.845,1.197h34.417c0.699,0,1.446-0.549,1.594-1.248
		l3.283-11.945c0.151-0.703,0.847-1.25,1.593-1.25h33.588c0.698,0,1.444,0.547,1.595,1.25l2.984,11.945
		c0.198,0.699,0.901,1.248,1.597,1.248h29.123C313.811,126.441,311.552,124.204,309.48,121.742z M273.417,91.455h-18.859
		c-0.695,0-1.096-0.547-0.896-1.25l10.053-33.776c0.247-0.699,0.546-0.699,0.746,0l9.902,33.776
		C274.511,90.908,274.113,91.455,273.417,91.455z"/>
	<path fill="#FFFFFF" d="M409.006,29.668c-10.549-12.143-25.729-18.094-45.33-18.291v0.148c-19.809,0.5-34.981,7.049-45.336,19.494
		c-10.349,12.443-15.725,26.041-15.875,40.837c0,0.15,0,0.15,0,0.349c0,0.201,0,0.5,0,0.698c0,14.934,5.18,28.48,15.729,40.775
		c10.349,12.3,25.876,18.448,46.773,18.448c20.853,0,36.425-6.148,46.576-18.448c10.15-12.295,15.179-26.19,15.179-41.822
		c0-0.498,0-0.896,0-1.399c-0.201-0.348-0.201-0.7-0.201-1.05C425.28,54.963,419.556,41.765,409.006,29.668z M334.76,61.258
		c0-5.297,3.434-9.594,7.664-9.594s7.665,4.297,7.665,9.594c0,5.301-3.435,9.603-7.665,9.603S334.76,66.558,334.76,61.258z
		 M384.225,103.533c-4.08,5.302-9.904,7.997-17.515,7.997c-7.367,0-13.237-2.549-17.716-7.495c-4.382-4.85-6.47-11.849-6.57-21.296
		h0.001v-0.048h47.771C390,91.638,388.109,98.588,384.225,103.533z M390.247,70.86c-4.231,0-7.665-4.302-7.665-9.603
		c0-5.297,3.434-9.594,7.665-9.594c4.278,0,7.665,4.297,7.665,9.594C397.912,66.558,394.476,70.86,390.247,70.86z"/>
</g>
</svg>
