<?xml version="1.0" encoding="utf-8"?>
<!-- Generator: Adobe Illustrator 15.0.2, SVG Export Plug-In . SVG Version: 6.00 Build 0)  -->
<!DOCTYPE svg PUBLIC "-//W3C//DTD SVG 1.1//EN" "http://www.w3.org/Graphics/SVG/1.1/DTD/svg11.dtd">
<svg version="1.1" id="レイヤー_2" xmlns="http://www.w3.org/2000/svg" xmlns:xlink="http://www.w3.org/1999/xlink" x="0px"
	 y="0px" width="433.701px" height="141.732px" viewBox="0 0 433.701 141.732" enable-background="new 0 0 433.701 141.732"
	 xml:space="preserve">
<ellipse fill="#FFFFFF" cx="157.35" cy="73.924" rx="30.667" ry="38.225"/>
<g>
	<path fill="#FFFFFF" stroke="#FFFFFF" stroke-width="11.7829" stroke-miterlimit="10" d="M159.755,68.977
		c0-0.75,0.548-1.303,1.293-1.303h48.317c0.699,0,1.295,0.553,1.295,1.303v58.918c0,0.699-0.597,1.297-1.295,1.297h-20.4
		c-0.696,0-1.396-0.549-1.595-1.252l-1.79-7.146c-0.148-0.698-0.695-0.801-1.145-0.299c0,0-0.348,0.45-1.044,1.101
		c-0.698,0.698-1.345,1.349-2.191,2.048c-2.188,1.898-5.474,3.801-9.753,5.351c-4.277,1.698-10.646,2.55-18.661,2.55
		c-17.962,0-31.646-6.001-41.102-17.844c-9.456-11.85-14.184-25.047-14.184-39.482c0-0.498,0-0.85,0-1.347c0-0.349,0-0.697,0-1.047
		c0.499-13.896,5.674-26.643,15.277-38.135c9.456-11.551,23.636-17.35,42.298-17.495c14.184,0,25.328,2.747,33.739,8.396
		c8.21,5.696,14.032,11.844,17.317,18.545c1.192,2.549,2.04,4.996,2.537,7.196c0.497,2.396,0.848,4.646,0.848,6.896l-33.689-0.15
		c-0.696,0-1.544-0.497-1.841-1.15c0,0-3.536-7.247-6.47-9.295c-2.936-1.898-7.166-2.897-12.491-2.897
		c-5.97,0-10.797,3.097-14.379,9.097c-3.633,5.996-5.474,12.746-5.822,19.941c0,0.499,0,0.849,0,1.196c0,0.497,0,0.849,0,1.198
		c0,7.39,1.691,14.088,5.325,20.084c3.432,6.001,8.707,9.099,16.123,9.099c4.826,0,9.104-1.05,12.688-2.899
		c3.634-1.898,6.172-4.845,8.014-9.098l-15.875-0.146c-0.697,0-1.294-0.603-1.294-1.302L159.755,68.977L159.755,68.977z"/>
	<path fill="#FFFFFF" stroke="#FFFFFF" stroke-width="11.7829" stroke-miterlimit="10" d="M159.755,68.977
		c0-0.75,0.548-1.303,1.293-1.303h48.317c0.699,0,1.295,0.553,1.295,1.303v58.918c0,0.699-0.597,1.297-1.295,1.297h-20.4
		c-0.696,0-1.396-0.549-1.595-1.252l-1.79-7.146c-0.148-0.698-0.695-0.801-1.145-0.299c0,0-0.348,0.45-1.044,1.101
		c-0.698,0.698-1.345,1.349-2.191,2.048c-2.188,1.898-5.474,3.801-9.753,5.351c-4.277,1.698-10.646,2.55-18.661,2.55
		c-17.962,0-31.646-6.001-41.102-17.844c-9.456-11.85-14.184-25.047-14.184-39.482c0-0.498,0-0.85,0-1.347c0-0.349,0-0.697,0-1.047
		c0.499-13.896,5.674-26.643,15.277-38.135c9.456-11.551,23.636-17.35,42.298-17.495c14.184,0,25.328,2.747,33.739,8.396
		c8.21,5.696,14.032,11.844,17.317,18.545c1.192,2.549,2.04,4.996,2.537,7.196c0.497,2.396,0.848,4.646,0.848,6.896l-33.689-0.15
		c-0.696,0-1.544-0.497-1.841-1.15c0,0-3.536-7.247-6.47-9.295c-2.936-1.898-7.166-2.897-12.491-2.897
		c-5.97,0-10.797,3.097-14.379,9.097c-3.633,5.996-5.474,12.746-5.822,19.941c0,0.499,0,0.849,0,1.196c0,0.497,0,0.849,0,1.198
		c0,7.39,1.691,14.088,5.325,20.084c3.432,6.001,8.707,9.099,16.123,9.099c4.826,0,9.104-1.05,12.688-2.899
		c3.634-1.898,6.172-4.845,8.014-9.098l-15.875-0.146c-0.697,0-1.294-0.603-1.294-1.302L159.755,68.977L159.755,68.977z"/>
</g>
<g>
	<g>
		<path fill="#FFFFFF" stroke="#FFFFFF" stroke-width="11.7829" stroke-miterlimit="10" d="M159.755,68.977
			c0-0.703,0.548-1.303,1.293-1.303h48.317c0.699,0,1.295,0.6,1.295,1.303v58.918c0,0.699-0.597,1.297-1.295,1.297h-20.4
			c-0.696,0-1.396-0.549-1.595-1.252l-1.79-7.146c-0.148-0.698-0.695-0.801-1.145-0.299c0,0-0.348,0.45-1.044,1.101
			c-0.698,0.698-1.345,1.349-2.191,2.048c-2.188,1.898-5.474,3.801-9.753,5.351c-4.277,1.698-10.646,2.55-18.661,2.55
			c-17.962,0-31.646-6.001-41.102-17.844c-9.456-11.85-14.184-25.047-14.184-39.482c0-0.498,0-0.85,0-1.347c0-0.349,0-0.697,0-1.047
			c0.499-13.896,5.674-26.643,15.277-38.135c9.456-11.551,23.636-17.35,42.298-17.495c14.184,0,25.328,2.747,33.739,8.396
			c8.21,5.696,14.032,11.844,17.317,18.545c1.192,2.549,2.04,4.996,2.537,7.196c0.497,2.396,0.848,4.646,0.848,6.896l-33.689-0.15
			c-0.696,0-1.544-0.497-1.841-1.15c0,0-3.536-7.247-6.47-9.295c-2.936-1.898-7.166-2.897-12.491-2.897
			c-5.97,0-10.797,3.097-14.379,9.097c-3.633,5.996-5.474,12.746-5.822,19.941c0,0.499,0,0.849,0,1.196c0,0.497,0,0.849,0,1.198
			c0,7.39,1.691,14.088,5.325,20.084c3.432,6.001,8.707,9.099,16.123,9.099c4.826,0,9.104-1.05,12.688-2.899
			c3.634-1.898,6.172-4.845,8.014-9.098l-15.875-0.146c-0.697,0-1.294-0.603-1.294-1.302L159.755,68.977L159.755,68.977z"/>
	</g>
	<g>
		<path fill="#FFFFFF" stroke="#FFFFFF" stroke-width="11.7829" stroke-miterlimit="10" d="M159.755,68.977
			c0-0.703,0.548-1.303,1.293-1.303h48.317c0.699,0,1.295,0.6,1.295,1.303v58.918c0,0.699-0.597,1.297-1.295,1.297h-20.4
			c-0.696,0-1.396-0.549-1.595-1.252l-1.79-7.146c-0.148-0.698-0.695-0.801-1.145-0.299c0,0-0.348,0.45-1.044,1.101
			c-0.698,0.698-1.345,1.349-2.191,2.048c-2.188,1.898-5.474,3.801-9.753,5.351c-4.277,1.698-10.646,2.55-18.661,2.55
			c-17.962,0-31.646-6.001-41.102-17.844c-9.456-11.85-14.184-25.047-14.184-39.482c0-0.498,0-0.85,0-1.347c0-0.349,0-0.697,0-1.047
			c0.499-13.896,5.674-26.643,15.277-38.135c9.456-11.551,23.636-17.35,42.298-17.495c14.184,0,25.328,2.747,33.739,8.396
			c8.21,5.696,14.032,11.844,17.317,18.545c1.192,2.549,2.04,4.996,2.537,7.196c0.497,2.396,0.848,4.646,0.848,6.896l-33.689-0.15
			c-0.696,0-1.544-0.497-1.841-1.15c0,0-3.536-7.247-6.47-9.295c-2.936-1.898-7.166-2.897-12.491-2.897
			c-5.97,0-10.797,3.097-14.379,9.097c-3.633,5.996-5.474,12.746-5.822,19.941c0,0.499,0,0.849,0,1.196c0,0.497,0,0.849,0,1.198
			c0,7.39,1.691,14.088,5.325,20.084c3.432,6.001,8.707,9.099,16.123,9.099c4.826,0,9.104-1.05,12.688-2.899
			c3.634-1.898,6.172-4.845,8.014-9.098l-15.875-0.146c-0.697,0-1.294-0.603-1.294-1.302L159.755,68.977L159.755,68.977z"/>
	</g>
</g>
<g>
	<path fill="#FFFFFF" stroke="#FFFFFF" stroke-width="11.7829" stroke-miterlimit="10" d="M280.76,18.44
		c0.746,0,1.493,0.551,1.691,1.199l38.922,108.351c0.247,0.699-0.152,1.201-0.848,1.201H285.69c-0.747,0-1.398-0.549-1.597-1.252
		l-2.984-11.945c-0.15-0.698-0.896-1.246-1.595-1.246h-33.588c-0.695,0-1.441,0.548-1.593,1.246l-3.233,11.945
		c-0.149,0.703-0.896,1.252-1.593,1.252h-34.42c-0.696,0-1.043-0.549-0.845-1.201l38.849-108.351
		c0.249-0.698,1.043-1.199,1.691-1.199H280.76L280.76,18.44z M272.001,92.104c0.696,0,1.095-0.552,0.946-1.252l-9.902-33.774
		c-0.2-0.699-0.499-0.699-0.746,0l-10.053,33.774c-0.2,0.7,0.199,1.252,0.896,1.252H272.001z"/>
	<path fill="#FFFFFF" stroke="#FFFFFF" stroke-width="11.7829" stroke-miterlimit="10" d="M280.76,18.44
		c0.746,0,1.493,0.551,1.691,1.199l38.922,108.351c0.247,0.699-0.152,1.201-0.848,1.201H285.69c-0.747,0-1.398-0.549-1.597-1.252
		l-2.984-11.945c-0.15-0.698-0.896-1.246-1.595-1.246h-33.588c-0.695,0-1.441,0.548-1.593,1.246l-3.233,11.945
		c-0.149,0.703-0.896,1.252-1.593,1.252h-34.42c-0.696,0-1.043-0.549-0.845-1.201l38.849-108.351
		c0.249-0.698,1.043-1.199,1.691-1.199H280.76L280.76,18.44z M272.001,92.104c0.696,0,1.095-0.552,0.946-1.252l-9.902-33.774
		c-0.2-0.699-0.499-0.699-0.746,0l-10.053,33.774c-0.2,0.7,0.199,1.252,0.896,1.252H272.001z"/>
</g>
<g>
	<g>
		<path fill="#FFFFFF" stroke="#FFFFFF" stroke-width="11.7829" stroke-miterlimit="10" d="M280.76,18.49
			c0.746,0,1.493,0.553,1.691,1.2l38.922,108.351c0.247,0.699-0.152,1.201-0.848,1.201H285.69c-0.747,0-1.398-0.552-1.597-1.252
			l-2.984-11.944c-0.15-0.698-0.896-1.246-1.595-1.246h-33.588c-0.695,0-1.441,0.548-1.593,1.246l-3.283,11.944
			c-0.147,0.7-0.895,1.252-1.594,1.252h-34.42c-0.695,0-1.044-0.552-0.845-1.201L243.04,19.69c0.25-0.699,1.046-1.2,1.691-1.2
			H280.76L280.76,18.49z M272.001,92.155c0.696,0,1.095-0.552,0.946-1.251l-9.902-33.775c-0.2-0.7-0.499-0.7-0.746,0l-10.053,33.775
			c-0.2,0.699,0.199,1.251,0.896,1.251H272.001z"/>
	</g>
	<g>
		<path fill="#FFFFFF" stroke="#FFFFFF" stroke-width="11.7829" stroke-miterlimit="10" d="M280.76,18.49
			c0.746,0,1.493,0.553,1.691,1.2l38.922,108.351c0.247,0.699-0.152,1.201-0.848,1.201H285.69c-0.747,0-1.398-0.552-1.597-1.252
			l-2.984-11.944c-0.15-0.698-0.896-1.246-1.595-1.246h-33.588c-0.695,0-1.441,0.548-1.593,1.246l-3.283,11.944
			c-0.147,0.7-0.895,1.252-1.594,1.252h-34.42c-0.695,0-1.044-0.552-0.845-1.201L243.04,19.69c0.25-0.699,1.046-1.2,1.691-1.2
			H280.76L280.76,18.49z M272.001,92.155c0.696,0,1.095-0.552,0.946-1.251l-9.902-33.775c-0.2-0.7-0.499-0.7-0.746,0l-10.053,33.775
			c-0.2,0.699,0.199,1.251,0.896,1.251H272.001z"/>
	</g>
</g>
<path fill="#FFFFFF" stroke="#FFFFFF" stroke-width="11.7829" stroke-miterlimit="10" d="M341.525,83.357
	c0.102,9.446,2.188,16.445,6.569,21.291c4.479,4.95,10.35,7.5,17.717,7.5c7.609,0,13.434-2.701,17.515-7.997
	c3.882-4.951,5.772-11.896,5.97-20.845h-47.771V83.357L341.525,83.357z"/>
<path fill="#FFFFFF" stroke="#FFFFFF" stroke-width="11.7829" stroke-miterlimit="10" d="M349.19,61.826
	c0,5.302-3.436,9.6-7.665,9.6s-7.66-4.298-7.66-9.6c0-5.296,3.432-9.593,7.66-9.593C345.805,52.278,349.19,56.581,349.19,61.826z"/>
<path fill="#FFFFFF" stroke="#FFFFFF" stroke-width="11.7829" stroke-miterlimit="10" d="M397.062,61.826
	c0,5.302-3.436,9.6-7.665,9.6c-4.231,0-7.665-4.298-7.665-9.6c0-5.296,3.434-9.593,7.665-9.593
	C393.676,52.278,397.062,56.581,397.062,61.826z"/>
<path fill="#FFFFFF" stroke="#FFFFFF" stroke-width="11.7829" stroke-miterlimit="10" d="M363.969,7.943
	c35.068,0,63.496,28.559,63.496,63.781c0,35.209-28.428,63.767-63.496,63.767s-63.499-28.559-63.499-63.767
	C300.469,36.502,328.9,7.943,363.969,7.943z"/>
<path fill="#FFFFFF" stroke="#FFFFFF" stroke-width="11.7829" stroke-miterlimit="10" d="M58.042,44.134
	c27.044,0,48.967,19.829,48.967,44.271c0,24.461-21.922,44.285-48.967,44.285C31,132.69,9.078,112.866,9.078,88.405
	C9.078,63.963,31,44.134,58.042,44.134z"/>
<g id="レイヤー_1_1_">
	<g>
		<path fill="#FF9900" stroke="#FFFFFF" stroke-width="0.8313" stroke-miterlimit="10" d="M100.639,103.599
			c-1.195,7.201-5.126,13.598-12.144,19.096c-7.015,5.696-17.813,8.397-32.393,8.397h-0.25c-0.746,0-1.841,0-2.539,0
			c0,0-20.104,0-32.146-13.248c-7.812-8.646-11.494-18.342-11.645-28.842c0-0.146,0-0.146,0-0.351c0,0,0,0,0-0.146
			c0-0.151,0-0.351,0-0.502c0-0.147,0-0.351,0-0.497c0.15-10.446,4.13-20.082,11.795-28.829
			c7.514-8.747,18.659-13.046,33.588-13.046c13.188,0,23.288,2.747,29.957,8.246c6.667,5.499,11.493,11.545,14.182,17.996
			c1.542,3.789,2.539,7.382,3.085,10.782c0.497,3.649,0.845,6.548,0.845,9.097v2.199c0,0.7-0.547,1.298-1.294,1.298h-57.82
			c-0.746,0-1.144,0.554-1.046,1.252c0,0,1.445,7.196,4.032,9.746c2.537,2.548,5.324,4.149,8.357,4.646
			c0.5,0.152,1.046,0.152,1.543,0.152c0.498,0.146,0.848,0.146,1.344,0.146c2.539,0,4.977-0.7,7.167-2.049
			c2.188-1.348,3.435-3.096,3.931-5.347l0,0c0-0.102,0.597-0.151,1.293-0.151L100.639,103.599L100.639,103.599z M71.727,78.012
			c-1.193-4.645-3.085-7.889-5.823-9.435c-2.935-1.551-6.17-2.2-9.752-2.2c-3.583,0-6.519,0.699-8.906,2.2
			c-2.539,1.546-4.479,4.345-5.822,9.086v0.496c0-0.097,0.547-0.146,1.293-0.146L71.727,78.012L71.727,78.012z"/>
	</g>
	<g>
		<path fill="none" stroke="#FFFFFF" stroke-width="11.7829" stroke-miterlimit="10" d="M159.755,68.475
			c0-0.699,0.598-1.3,1.293-1.3h48.317c0.747,0,1.295,0.601,1.295,1.3v58.917c0,0.751-0.548,1.298-1.295,1.298h-20.4
			c-0.696,0-1.396-0.547-1.595-1.246l-1.79-7.15c-0.148-0.699-0.695-0.797-1.145-0.3c0,0-0.348,0.451-1.044,1.101
			c-0.698,0.698-1.345,1.353-2.191,2.053c-2.188,1.896-5.474,3.795-9.753,5.347c-4.277,1.698-10.646,2.55-18.661,2.55
			c-17.962,0-31.646-6.001-41.102-17.845c-9.456-11.846-14.231-25.041-14.231-39.479c0-0.498,0-0.849,0-1.349
			c0-0.349,0-0.698,0-1.047c0.496-13.896,5.671-26.644,15.275-38.137c9.456-11.546,23.638-17.344,42.297-17.494
			c14.184,0,25.331,2.747,33.739,8.396c8.21,5.696,14.033,11.844,17.317,18.543c1.194,2.549,2.04,4.997,2.537,7.197
			c0.499,2.402,0.848,4.646,0.848,6.896l-33.689-0.146c-0.696,0-1.542-0.502-1.84-1.15c0,0-3.532-7.247-6.47-9.299
			c-2.936-1.896-7.165-2.898-12.488-2.898c-5.974,0-10.8,3.101-14.383,9.098c-3.632,6-5.475,12.745-5.822,19.941
			c0,0.5,0,0.85,0,1.197c0,0.5,0,0.851,0,1.198c0,7.393,1.692,14.087,5.325,20.087c3.435,5.995,8.708,9.099,16.122,9.099
			c4.826,0,9.107-1.05,12.69-2.899c3.63-1.898,6.169-4.85,8.012-9.097l-15.875-0.152c-0.696,0-1.293-0.599-1.293-1.298
			L159.755,68.475L159.755,68.475z"/>
	</g>
	<g>
		<g>
			<path fill="#00552E" stroke="#FFFFFF" stroke-width="0.8313" stroke-miterlimit="10" d="M159.755,68.475
				c0-0.699,0.598-1.3,1.293-1.3h48.317c0.747,0,1.295,0.601,1.295,1.3v58.917c0,0.7-0.548,1.298-1.295,1.298h-20.4
				c-0.696,0-1.396-0.547-1.595-1.246l-1.79-7.15c-0.148-0.699-0.695-0.797-1.145-0.3c0,0-0.348,0.451-1.044,1.101
				c-0.698,0.698-1.345,1.353-2.191,2.053c-2.188,1.896-5.474,3.795-9.753,5.347c-4.277,1.698-10.646,2.55-18.661,2.55
				c-17.962,0-31.646-6.001-41.102-17.845c-9.456-11.846-14.231-25.041-14.231-39.479c0-0.498,0-0.849,0-1.349
				c0-0.349,0-0.698,0-1.047c0.496-13.896,5.671-26.644,15.275-38.137c9.456-11.546,23.638-17.344,42.297-17.494
				c14.184,0,25.331,2.747,33.739,8.396c8.21,5.696,14.033,11.844,17.317,18.543c1.194,2.549,2.04,4.997,2.537,7.197
				c0.499,2.402,0.848,4.646,0.848,6.896l-33.689-0.146c-0.696,0-1.542-0.502-1.84-1.15c0,0-3.532-7.247-6.47-9.299
				c-2.936-1.896-7.165-2.898-12.488-2.898c-5.974,0-10.8,3.101-14.383,9.098c-3.632,6-5.475,12.745-5.822,19.941
				c0,0.5,0,0.85,0,1.197c0,0.5,0,0.851,0,1.198c0,7.393,1.692,14.087,5.325,20.087c3.435,5.995,8.708,9.099,16.122,9.099
				c4.826,0,9.107-1.05,12.69-2.899c3.63-1.898,6.169-4.85,8.012-9.097l-15.875-0.152c-0.696,0-1.293-0.599-1.293-1.298
				L159.755,68.475L159.755,68.475z"/>
		</g>
	</g>
	<g>
		<path fill="#231815" stroke="#FFFFFF" stroke-width="0.8313" stroke-miterlimit="10" d="M280.76,17.891
			c0.696,0,1.493,0.549,1.691,1.2l38.922,108.352c0.247,0.699-0.152,1.199-0.848,1.199H285.69c-0.695,0-1.398-0.551-1.597-1.251
			l-2.984-11.944c-0.15-0.699-0.896-1.252-1.595-1.252h-33.588c-0.746,0-1.441,0.553-1.594,1.252l-3.282,11.944
			c-0.147,0.7-0.895,1.251-1.594,1.251h-34.42c-0.695,0-1.044-0.552-0.845-1.199L243.04,19.092c0.25-0.698,1.046-1.2,1.691-1.2
			H280.76L280.76,17.891z M272.001,91.603c0.696,0,1.095-0.548,0.946-1.247l-9.902-33.775c-0.2-0.699-0.499-0.699-0.746,0
			l-10.053,33.825c-0.2,0.699,0.199,1.247,0.896,1.247L272.001,91.603L272.001,91.603z"/>
		<path fill="none" stroke="#FFFFFF" stroke-width="11.7829" stroke-miterlimit="10" d="M280.76,17.891
			c0.696,0,1.493,0.549,1.691,1.2l38.922,108.352c0.247,0.699-0.152,1.199-0.848,1.199H285.69c-0.695,0-1.398-0.551-1.597-1.251
			l-2.984-11.944c-0.15-0.699-0.896-1.252-1.595-1.252h-33.588c-0.746,0-1.441,0.553-1.594,1.252l-3.282,11.944
			c-0.147,0.7-0.895,1.251-1.594,1.251h-34.42c-0.695,0-1.044-0.552-0.845-1.199L243.04,19.092c0.25-0.698,1.046-1.2,1.691-1.2
			H280.76L280.76,17.891z M272.001,91.603c0.696,0,1.095-0.548,0.946-1.247l-9.902-33.775c-0.2-0.699-0.499-0.699-0.746,0
			l-10.053,33.825c-0.2,0.699,0.199,1.247,0.896,1.247L272.001,91.603L272.001,91.603z"/>
	</g>
	<g>
		<g>
			<path fill="#00552E" stroke="#FFFFFF" stroke-width="0.8313" stroke-miterlimit="10" d="M280.76,17.994
				c0.696,0,1.493,0.546,1.691,1.195l38.922,108.354c0.247,0.7-0.152,1.196-0.848,1.196H285.69c-0.695,0-1.398-0.548-1.597-1.247
				l-2.984-11.945c-0.15-0.703-0.896-1.25-1.595-1.25h-33.588c-0.746,0-1.441,0.547-1.593,1.25l-3.283,11.945
				c-0.147,0.699-0.895,1.247-1.594,1.247h-34.42c-0.695,0-1.044-0.548-0.845-1.196L243.04,19.189
				c0.25-0.699,1.046-1.195,1.691-1.195H280.76L280.76,17.994z M272.001,91.704c0.696,0,1.095-0.547,0.946-1.25l-9.902-33.776
				c-0.2-0.699-0.499-0.699-0.746,0l-10.053,33.776c-0.2,0.703,0.2,1.25,0.896,1.25H272.001z"/>
		</g>
	</g>
	<path fill="none" stroke="#FFFFFF" stroke-width="9.4263" stroke-miterlimit="10" d="M426.466,68.927
		c-1.29-15.098-7.063-28.843-17.715-41.589C398.105,14.644,382.73,8.395,362.825,8.196v0.147
		c-20.055,0.552-35.431,7.35-45.931,20.394c-10.499,13.046-15.875,27.24-16.122,42.688c0,0.146,0,0.146,0,0.398
		c0,0.147,0,0.547,0,0.75c0,15.633,5.225,29.778,15.869,42.672c10.5,12.897,26.229,19.294,47.374,19.294
		c21.148,0,36.872-6.446,47.176-19.294c10.302-12.894,15.325-27.389,15.325-43.77c0-0.552,0-0.952,0-1.448
		C426.466,69.677,426.466,69.328,426.466,68.927z"/>
	<path fill="#00552E" stroke="#FFFFFF" stroke-width="0.8313" stroke-miterlimit="10" d="M425.671,69.525
		c-1.24-14.443-6.964-27.642-17.515-39.738c-10.549-12.143-25.729-18.094-45.33-18.291v0.147c-19.809,0.5-34.981,7.05-45.336,19.495
		c-10.349,12.443-15.725,26.04-15.875,40.833c0,0.151,0,0.151,0,0.35c0,0.201,0,0.5,0,0.698c0,14.934,5.18,28.48,15.729,40.775
		c10.349,12.3,25.876,18.448,46.773,18.448c20.853,0,36.425-6.148,46.576-18.448c10.15-12.295,15.179-26.19,15.179-41.823
		c0-0.497,0-0.896,0-1.397C425.671,70.225,425.671,69.875,425.671,69.525z"/>
	<path fill="#F7F7F7" stroke="#FFFFFF" stroke-width="0.8313" stroke-miterlimit="10" d="M341.575,82.855
		c0.101,9.447,2.188,16.446,6.57,21.296c4.479,4.946,10.349,7.495,17.716,7.495c7.61,0,13.435-2.695,17.515-7.997
		c3.884-4.945,5.774-11.895,5.971-20.842h-47.771L341.575,82.855L341.575,82.855z"/>
	<path fill="#F7F7F7" stroke="#FFFFFF" stroke-width="0.8313" stroke-miterlimit="10" d="M349.24,61.377
		c0,5.3-3.435,9.599-7.665,9.599s-7.664-4.299-7.664-9.599c0-5.298,3.434-9.595,7.664-9.595S349.24,56.079,349.24,61.377z"/>
	<path fill="#F7F7F7" stroke="#FFFFFF" stroke-width="0.8313" stroke-miterlimit="10" d="M397.062,61.377
		c0,5.3-3.436,9.599-7.665,9.599c-4.231,0-7.665-4.299-7.665-9.599c0-5.298,3.434-9.595,7.665-9.595
		C393.676,51.782,397.062,56.079,397.062,61.377z"/>
</g>
</svg>
