<?xml version="1.0" encoding="utf-8"?>
<!-- Generator: Adobe Illustrator 19.1.0, SVG Export Plug-In . SVG Version: 6.00 Build 0)  -->
<svg version="1.1" id="レイヤー_1" xmlns="http://www.w3.org/2000/svg" xmlns:xlink="http://www.w3.org/1999/xlink" x="0px"
	 y="0px" viewBox="-293 385 24 24" style="enable-background:new -293 385 24 24;" xml:space="preserve">
<style type="text/css">
	.st0{fill:#FFFFFF;}
</style>
<path class="st0" d="M-281.7,404.6c-0.3,0.4-0.9,0.5-1.3,0.2c0,0,0,0,0,0c-0.4-0.3-0.5-0.9-0.2-1.3c0,0,0,0,0,0l1.1-1.5
	c0.3-0.4,0.9-0.5,1.3-0.2c0,0,0,0,0,0c0.4,0.3,0.5,0.9,0.2,1.3L-281.7,404.6z M-282.5,401.8c0.3-0.4,0.2-1-0.3-1.3
	c-0.4-0.3-0.9-0.2-1.3,0.2l-1.1,1.4c-0.3,0.4-0.3,1,0.1,1.3s1,0.3,1.3-0.1c0,0,0-0.1,0.1-0.1C-283.6,403.2-282.5,401.8-282.5,401.8z
	 M-284.4,400.4c0.3-0.4,0.2-1-0.2-1.3c-0.4-0.3-1-0.2-1.3,0.2l-1.1,1.5c-0.3,0.4-0.2,1,0.2,1.3c0,0,0,0,0,0c0.4,0.3,1,0.2,1.3-0.2
	c0,0,0,0,0,0L-284.4,400.4L-284.4,400.4z M-286.3,399c0.3-0.4,0.2-1-0.2-1.3c0,0,0,0,0,0c-0.4-0.3-1-0.2-1.3,0.2c0,0,0,0,0,0
	l-1.1,1.5c-0.3,0.4-0.2,1,0.2,1.3s1,0.2,1.3-0.2L-286.3,399z M-269,390.5c0,0-1.6,0.3-2.7,0.5c-2.1,0.3-4.1-0.4-6.4-1.6
	c-0.4-0.2-1-0.5-1.5-0.5c-0.5,0-0.9,0.2-1.3,0.6c-1.4,1.5-2.2,2.9-3.8,3.9c-0.8,0.5,0.1,1.9,1.9,1.3c0.9-0.3,1.7-0.9,2.7-1.7
	c0.8-0.6,1.2-0.5,1.9,0.1c1.2,1.2,5.4,5.4,5.4,5.4c1.3-0.8,2.4-1.3,3.7-1.8L-269,390.5L-269,390.5z M-279.5,403.2
	c-0.2,0.5-0.6,1-1,1.5c0.3,0.2,0.6,0.3,0.9,0.3c0.7,0,1.2-0.7,0.5-1.3L-279.5,403.2L-279.5,403.2z M-273,399.7
	c-1.1-1.1-4.7-4.7-5.8-5.7c-0.2-0.2-0.4-0.2-0.6,0c-0.6,0.5-2.1,1.5-2.9,1.8c-1.7,0.6-3.1-0.2-3.4-1.4c-0.2-0.7,0.1-1.4,0.7-1.8
	c1-0.6,1.7-1.4,2.5-2.4c-0.7-0.5-1.4-0.7-2-0.7c-1.7,0-3.3,1.4-5.3,1.2c-1.4-0.1-3.1-0.4-3.1-0.4v6.3c1.5,0.3,2.5,0.5,3.9,1.2
	l0.5-0.6c0.6-0.9,1.9-1,2.7-0.4c0.3,0.2,0.6,0.6,0.7,1c0.9,0,1.7,0.6,1.9,1.4c0.8,0,1.6,0.5,1.9,1.4c1.2,0,2,0.9,2,2l1.2,1.2
	c0.4,0.4,1,0.4,1.3,0c0.4-0.4,0.4-1,0-1.3l0,0l-1.7-1.7c-0.2-0.2,0.1-0.6,0.3-0.3l2,2c0.4,0.4,1,0.4,1.3,0s0.4-1,0-1.3l0,0l-2.5-2.5
	c-0.2-0.2,0.1-0.6,0.3-0.3l2.7,2.7c0.4,0.4,1,0.4,1.3,0c0,0,0,0,0,0C-272.7,400.7-272.7,400.1-273,399.7L-273,399.7z"/>
</svg>
